<?xml version="1.0" encoding="UTF-8" standalone="no"?>
<!DOCTYPE svg PUBLIC "-//W3C//DTD SVG 1.1//EN"
 "http://www.w3.org/Graphics/SVG/1.1/DTD/svg11.dtd">
<!-- Generated by graphviz version 2.42.3 (0)
 -->
<!-- Title: %3 Pages: 1 -->
<svg width="521pt" height="602pt"
 viewBox="0.00 0.00 521.45 602.45" xmlns="http://www.w3.org/2000/svg" xmlns:xlink="http://www.w3.org/1999/xlink">
<g id="graph0" class="graph" transform="scale(1 1) rotate(0) translate(4 598.45)">
<title>%3</title>
<polygon fill="white" stroke="transparent" points="-4,4 -4,-598.45 517.45,-598.45 517.45,4 -4,4"/>
<!-- 1 -->
<g id="node1" class="node">
<title>1</title>
<ellipse fill="none" stroke="black" cx="300.87" cy="-183.78" rx="27" ry="18"/>
<text text-anchor="middle" x="300.87" y="-180.08" font-family="Times,serif" font-size="14.00">1</text>
</g>
<!-- 1&#45;&gt;1 -->
<g id="edge1" class="edge">
<title>1&#45;&gt;1</title>
<path fill="none" stroke="black" stroke-width="5" d="M326.31,-190.47C336.9,-190.94 345.87,-188.71 345.87,-183.78 345.87,-179.71 339.72,-177.48 331.59,-177.09"/>
<polygon fill="black" stroke="black" stroke-width="5" points="331.31,-174.91 326.31,-177.09 331.31,-179.28 331.31,-174.91"/>
</g>
<!-- 2 -->
<g id="node2" class="node">
<title>2</title>
<ellipse fill="none" stroke="black" cx="187.43" cy="-136.8" rx="27" ry="18"/>
<text text-anchor="middle" x="187.43" y="-133.1" font-family="Times,serif" font-size="14.00">2</text>
</g>
<!-- 1&#45;&gt;2 -->
<g id="edge2" class="edge">
<title>1&#45;&gt;2</title>
<path fill="none" stroke="black" stroke-width="5" d="M277.91,-174.28C259.89,-166.81 234.71,-156.38 215.49,-148.42"/>
<polygon fill="black" stroke="black" stroke-width="5" points="216.2,-146.34 210.74,-146.45 214.52,-150.39 216.2,-146.34"/>
</g>
<!-- 3 -->
<g id="node4" class="node">
<title>3</title>
<ellipse fill="none" stroke="black" cx="73.99" cy="-183.78" rx="27" ry="18"/>
<text text-anchor="middle" x="73.99" y="-180.08" font-family="Times,serif" font-size="14.00">3</text>
</g>
<!-- 2&#45;&gt;3 -->
<g id="edge4" class="edge">
<title>2&#45;&gt;3</title>
<path fill="none" stroke="black" stroke-width="10" d="M164.47,-146.3C147.82,-153.2 125.07,-162.63 106.55,-170.3"/>
<polygon fill="black" stroke="black" stroke-width="10" points="103.19,-162.22 97.3,-174.13 109.89,-178.39 103.19,-162.22"/>
</g>
<!-- 1, 1, 1, 1 -->
<g id="node3" class="node">
<title>1, 1, 1, 1</title>
<ellipse fill="none" stroke="black" cx="187.43" cy="-18" rx="46.59" ry="18"/>
<text text-anchor="middle" x="187.43" y="-14.3" font-family="Times,serif" font-size="14.00">1, 1, 1, 1</text>
</g>
<!-- 1, 1, 1, 1&#45;&gt;2 -->
<g id="edge3" class="edge">
<title>1, 1, 1, 1&#45;&gt;2</title>
<path fill="none" stroke="black" stroke-width="10" d="M187.43,-36.04C187.43,-55.23 187.43,-85.85 187.43,-108.3"/>
<polygon fill="black" stroke="black" stroke-width="10" points="178.68,-108.58 187.43,-118.58 196.18,-108.58 178.68,-108.58"/>
</g>
<!-- 4 -->
<g id="node5" class="node">
<title>4</title>
<ellipse fill="none" stroke="black" cx="27" cy="-297.22" rx="27" ry="18"/>
<text text-anchor="middle" x="27" y="-293.52" font-family="Times,serif" font-size="14.00">4</text>
</g>
<!-- 3&#45;&gt;4 -->
<g id="edge5" class="edge">
<title>3&#45;&gt;4</title>
<path fill="none" stroke="black" stroke-width="10" d="M66.65,-201.51C59.03,-219.91 47.01,-248.91 38.2,-270.18"/>
<polygon fill="black" stroke="black" stroke-width="10" points="30.03,-267.04 34.29,-279.62 46.2,-273.73 30.03,-267.04"/>
</g>
<!-- 5 -->
<g id="node6" class="node">
<title>5</title>
<ellipse fill="none" stroke="black" cx="73.99" cy="-410.66" rx="27" ry="18"/>
<text text-anchor="middle" x="73.99" y="-406.96" font-family="Times,serif" font-size="14.00">5</text>
</g>
<!-- 4&#45;&gt;5 -->
<g id="edge6" class="edge">
<title>4&#45;&gt;5</title>
<path fill="none" stroke="black" stroke-width="10" d="M34.34,-314.95C41.96,-333.35 53.98,-362.35 62.78,-383.62"/>
<polygon fill="black" stroke="black" stroke-width="10" points="54.79,-387.17 66.7,-393.06 70.96,-380.48 54.79,-387.17"/>
</g>
<!-- 5&#45;&gt;5 -->
<g id="edge7" class="edge">
<title>5&#45;&gt;5</title>
<path fill="none" stroke="black" stroke-width="5" d="M99.43,-417.35C110.02,-417.82 118.99,-415.59 118.99,-410.66 118.99,-406.59 112.84,-404.36 104.71,-403.97"/>
<polygon fill="black" stroke="black" stroke-width="5" points="104.43,-401.79 99.43,-403.97 104.43,-406.16 104.43,-401.79"/>
</g>
<!-- 6 -->
<g id="node7" class="node">
<title>6</title>
<ellipse fill="none" stroke="black" cx="187.43" cy="-457.65" rx="27" ry="18"/>
<text text-anchor="middle" x="187.43" y="-453.95" font-family="Times,serif" font-size="14.00">6</text>
</g>
<!-- 5&#45;&gt;6 -->
<g id="edge8" class="edge">
<title>5&#45;&gt;6</title>
<path fill="none" stroke="black" stroke-width="5" d="M96.94,-420.17C114.97,-427.64 140.15,-438.07 159.37,-446.03"/>
<polygon fill="black" stroke="black" stroke-width="5" points="158.66,-448.1 164.12,-448 160.33,-444.06 158.66,-448.1"/>
</g>
<!-- 7 -->
<g id="node9" class="node">
<title>7</title>
<ellipse fill="none" stroke="black" cx="300.87" cy="-410.66" rx="27" ry="18"/>
<text text-anchor="middle" x="300.87" y="-406.96" font-family="Times,serif" font-size="14.00">7</text>
</g>
<!-- 6&#45;&gt;7 -->
<g id="edge10" class="edge">
<title>6&#45;&gt;7</title>
<path fill="none" stroke="black" stroke-width="10" d="M210.38,-448.14C227.03,-441.25 249.79,-431.82 268.31,-424.15"/>
<polygon fill="black" stroke="black" stroke-width="10" points="271.67,-432.23 277.56,-420.32 264.97,-416.06 271.67,-432.23"/>
</g>
<!-- 5, 5, 5, 5 -->
<g id="node8" class="node">
<title>5, 5, 5, 5</title>
<ellipse fill="none" stroke="black" cx="187.43" cy="-576.45" rx="46.59" ry="18"/>
<text text-anchor="middle" x="187.43" y="-572.75" font-family="Times,serif" font-size="14.00">5, 5, 5, 5</text>
</g>
<!-- 5, 5, 5, 5&#45;&gt;6 -->
<g id="edge9" class="edge">
<title>5, 5, 5, 5&#45;&gt;6</title>
<path fill="none" stroke="black" stroke-width="10" d="M187.43,-558.41C187.43,-539.22 187.43,-508.6 187.43,-486.14"/>
<polygon fill="black" stroke="black" stroke-width="10" points="196.18,-485.86 187.43,-475.86 178.68,-485.86 196.18,-485.86"/>
</g>
<!-- 7&#45;&gt;7 -->
<g id="edge11" class="edge">
<title>7&#45;&gt;7</title>
<path fill="none" stroke="black" stroke-width="5" d="M326.31,-417.35C336.9,-417.82 345.87,-415.59 345.87,-410.66 345.87,-406.59 339.72,-404.36 331.59,-403.97"/>
<polygon fill="black" stroke="black" stroke-width="5" points="331.31,-401.79 326.31,-403.97 331.31,-406.16 331.31,-401.79"/>
</g>
<!-- 8 -->
<g id="node10" class="node">
<title>8</title>
<ellipse fill="none" stroke="black" cx="347.86" cy="-297.22" rx="27" ry="18"/>
<text text-anchor="middle" x="347.86" y="-293.52" font-family="Times,serif" font-size="14.00">8</text>
</g>
<!-- 7&#45;&gt;8 -->
<g id="edge12" class="edge">
<title>7&#45;&gt;8</title>
<path fill="none" stroke="black" stroke-width="5" d="M308.21,-392.94C316.42,-373.13 329.72,-341.01 338.63,-319.51"/>
<polygon fill="black" stroke="black" stroke-width="5" points="340.67,-320.28 340.57,-314.82 336.63,-318.61 340.67,-320.28"/>
</g>
<!-- 8&#45;&gt;1 -->
<g id="edge14" class="edge">
<title>8&#45;&gt;1</title>
<path fill="none" stroke="black" stroke-width="10" d="M340.51,-279.5C332.89,-261.1 320.88,-232.09 312.07,-210.83"/>
<polygon fill="black" stroke="black" stroke-width="10" points="320.07,-207.27 308.16,-201.38 303.9,-213.97 320.07,-207.27"/>
</g>
<!-- 7, 7, 7, 7 -->
<g id="node11" class="node">
<title>7, 7, 7, 7</title>
<ellipse fill="none" stroke="black" cx="466.65" cy="-297.22" rx="46.59" ry="18"/>
<text text-anchor="middle" x="466.65" y="-293.52" font-family="Times,serif" font-size="14.00">7, 7, 7, 7</text>
</g>
<!-- 7, 7, 7, 7&#45;&gt;8 -->
<g id="edge13" class="edge">
<title>7, 7, 7, 7&#45;&gt;8</title>
<path fill="none" stroke="black" stroke-width="10" d="M419.7,-297.22C408.2,-297.22 396.05,-297.22 385.08,-297.22"/>
<polygon fill="black" stroke="black" stroke-width="10" points="384.98,-288.47 374.98,-297.22 384.98,-305.97 384.98,-288.47"/>
</g>
</g>
</svg>
