<?xml version="1.0" encoding="UTF-8" standalone="no"?>
<!DOCTYPE svg PUBLIC "-//W3C//DTD SVG 1.1//EN"
 "http://www.w3.org/Graphics/SVG/1.1/DTD/svg11.dtd">
<!-- Generated by graphviz version 2.42.3 (0)
 -->
<!-- Title: %3 Pages: 1 -->
<svg width="383pt" height="365pt"
 viewBox="0.00 0.00 382.86 364.86" xmlns="http://www.w3.org/2000/svg" xmlns:xlink="http://www.w3.org/1999/xlink">
<g id="graph0" class="graph" transform="scale(1 1) rotate(0) translate(4 360.86)">
<title>%3</title>
<polygon fill="white" stroke="transparent" points="-4,4 -4,-360.86 378.86,-360.86 378.86,4 -4,4"/>
<!-- 1 -->
<g id="node1" class="node">
<title>1</title>
<ellipse fill="none" stroke="black" cx="300.87" cy="-64.99" rx="27" ry="18"/>
<text text-anchor="middle" x="300.87" y="-61.29" font-family="Times,serif" font-size="14.00">1</text>
</g>
<!-- 2 -->
<g id="node2" class="node">
<title>2</title>
<ellipse fill="none" stroke="black" cx="187.43" cy="-18" rx="27" ry="18"/>
<text text-anchor="middle" x="187.43" y="-14.3" font-family="Times,serif" font-size="14.00">2</text>
</g>
<!-- 1&#45;&gt;2 -->
<g id="edge1" class="edge">
<title>1&#45;&gt;2</title>
<path fill="none" stroke="black" stroke-width="10" d="M277.91,-55.48C261.26,-48.58 238.51,-39.16 219.99,-31.49"/>
<polygon fill="black" stroke="black" stroke-width="10" points="223.33,-23.4 210.74,-27.66 216.63,-39.57 223.33,-23.4"/>
</g>
<!-- 3 -->
<g id="node3" class="node">
<title>3</title>
<ellipse fill="none" stroke="black" cx="73.99" cy="-64.99" rx="27" ry="18"/>
<text text-anchor="middle" x="73.99" y="-61.29" font-family="Times,serif" font-size="14.00">3</text>
</g>
<!-- 2&#45;&gt;3 -->
<g id="edge2" class="edge">
<title>2&#45;&gt;3</title>
<path fill="none" stroke="black" stroke-width="10" d="M164.47,-27.51C147.82,-34.41 125.07,-43.83 106.55,-51.5"/>
<polygon fill="black" stroke="black" stroke-width="10" points="103.19,-43.42 97.3,-55.33 109.89,-59.59 103.19,-43.42"/>
</g>
<!-- 4 -->
<g id="node4" class="node">
<title>4</title>
<ellipse fill="none" stroke="black" cx="27" cy="-178.43" rx="27" ry="18"/>
<text text-anchor="middle" x="27" y="-174.73" font-family="Times,serif" font-size="14.00">4</text>
</g>
<!-- 3&#45;&gt;4 -->
<g id="edge3" class="edge">
<title>3&#45;&gt;4</title>
<path fill="none" stroke="black" stroke-width="10" d="M66.65,-82.71C59.03,-101.11 47.01,-130.12 38.2,-151.38"/>
<polygon fill="black" stroke="black" stroke-width="10" points="30.03,-148.24 34.29,-160.83 46.2,-154.94 30.03,-148.24"/>
</g>
<!-- 5 -->
<g id="node5" class="node">
<title>5</title>
<ellipse fill="none" stroke="black" cx="73.99" cy="-291.87" rx="27" ry="18"/>
<text text-anchor="middle" x="73.99" y="-288.17" font-family="Times,serif" font-size="14.00">5</text>
</g>
<!-- 4&#45;&gt;5 -->
<g id="edge4" class="edge">
<title>4&#45;&gt;5</title>
<path fill="none" stroke="black" stroke-width="10" d="M34.34,-196.15C41.96,-214.55 53.98,-243.56 62.78,-264.82"/>
<polygon fill="black" stroke="black" stroke-width="10" points="54.79,-268.38 66.7,-274.27 70.96,-261.68 54.79,-268.38"/>
</g>
<!-- 6 -->
<g id="node6" class="node">
<title>6</title>
<ellipse fill="none" stroke="black" cx="187.43" cy="-338.86" rx="27" ry="18"/>
<text text-anchor="middle" x="187.43" y="-335.16" font-family="Times,serif" font-size="14.00">6</text>
</g>
<!-- 5&#45;&gt;6 -->
<g id="edge5" class="edge">
<title>5&#45;&gt;6</title>
<path fill="none" stroke="black" stroke-width="10" d="M96.94,-301.38C113.59,-308.27 136.35,-317.7 154.87,-325.37"/>
<polygon fill="black" stroke="black" stroke-width="10" points="151.53,-333.46 164.12,-329.2 158.23,-317.29 151.53,-333.46"/>
</g>
<!-- 7 -->
<g id="node7" class="node">
<title>7</title>
<ellipse fill="none" stroke="black" cx="300.87" cy="-291.87" rx="27" ry="18"/>
<text text-anchor="middle" x="300.87" y="-288.17" font-family="Times,serif" font-size="14.00">7</text>
</g>
<!-- 6&#45;&gt;7 -->
<g id="edge6" class="edge">
<title>6&#45;&gt;7</title>
<path fill="none" stroke="black" stroke-width="10" d="M210.38,-329.35C227.03,-322.45 249.79,-313.03 268.31,-305.35"/>
<polygon fill="black" stroke="black" stroke-width="10" points="271.67,-313.43 277.56,-301.52 264.97,-297.27 271.67,-313.43"/>
</g>
<!-- 8 -->
<g id="node8" class="node">
<title>8</title>
<ellipse fill="none" stroke="black" cx="347.86" cy="-178.43" rx="27" ry="18"/>
<text text-anchor="middle" x="347.86" y="-174.73" font-family="Times,serif" font-size="14.00">8</text>
</g>
<!-- 7&#45;&gt;8 -->
<g id="edge7" class="edge">
<title>7&#45;&gt;8</title>
<path fill="none" stroke="black" stroke-width="10" d="M308.21,-274.14C315.83,-255.75 327.85,-226.74 336.65,-205.48"/>
<polygon fill="black" stroke="black" stroke-width="10" points="344.82,-208.62 340.57,-196.03 328.66,-201.92 344.82,-208.62"/>
</g>
<!-- 8&#45;&gt;1 -->
<g id="edge8" class="edge">
<title>8&#45;&gt;1</title>
<path fill="none" stroke="black" stroke-width="10" d="M340.51,-160.7C332.89,-142.31 320.88,-113.3 312.07,-92.04"/>
<polygon fill="black" stroke="black" stroke-width="10" points="320.07,-88.48 308.16,-82.59 303.9,-95.18 320.07,-88.48"/>
</g>
</g>
</svg>
