<?xml version="1.0" encoding="UTF-8" standalone="no"?>
<!DOCTYPE svg PUBLIC "-//W3C//DTD SVG 1.1//EN"
 "http://www.w3.org/Graphics/SVG/1.1/DTD/svg11.dtd">
<!-- Generated by graphviz version 2.42.3 (0)
 -->
<!-- Title: %3 Pages: 1 -->
<svg width="273pt" height="257pt"
 viewBox="0.00 0.00 272.88 256.64" xmlns="http://www.w3.org/2000/svg" xmlns:xlink="http://www.w3.org/1999/xlink">
<g id="graph0" class="graph" transform="scale(1 1) rotate(0) translate(4 252.64)">
<title>%3</title>
<polygon fill="white" stroke="transparent" points="-4,4 -4,-252.64 268.88,-252.64 268.88,4 -4,4"/>
<!-- 9 -->
<g id="node1" class="node">
<title>9</title>
<ellipse fill="none" stroke="black" cx="27" cy="-154.6" rx="27" ry="18"/>
<text text-anchor="middle" x="27" y="-150.9" font-family="Times,serif" font-size="14.00">9</text>
</g>
<!-- 0 -->
<g id="node2" class="node">
<title>0</title>
<ellipse fill="none" stroke="black" cx="130.24" cy="-123.62" rx="27" ry="18"/>
<text text-anchor="middle" x="130.24" y="-119.92" font-family="Times,serif" font-size="14.00">0</text>
</g>
<!-- 9&#45;&gt;0 -->
<g id="edge1" class="edge">
<title>9&#45;&gt;0</title>
<path fill="none" stroke="black" d="M53.95,-152.67C68.2,-149.43 85.73,-144.3 100.39,-139.13"/>
<polygon fill="black" stroke="black" points="101.85,-142.33 110.01,-135.57 99.42,-135.76 101.85,-142.33"/>
</g>
<!-- 0&#45;&gt;9 -->
<g id="edge2" class="edge">
<title>0&#45;&gt;9</title>
<path fill="none" stroke="black" stroke-width="0.11" d="M103.29,-125.55C86.16,-129.45 64.3,-136.06 48.37,-142.21"/>
<polygon fill="black" stroke="black" stroke-width="0.11" points="48.11,-141.89 47.23,-142.65 48.39,-142.61 48.11,-141.89"/>
</g>
<!-- 8 -->
<g id="node3" class="node">
<title>8</title>
<ellipse fill="none" stroke="black" cx="153.9" cy="-18" rx="27" ry="18"/>
<text text-anchor="middle" x="153.9" y="-14.3" font-family="Times,serif" font-size="14.00">8</text>
</g>
<!-- 0&#45;&gt;8 -->
<g id="edge3" class="edge">
<title>0&#45;&gt;8</title>
<path fill="none" stroke="black" stroke-width="0.11" d="M139.5,-106.38C145.74,-87.53 152.5,-57.42 154.91,-37.67"/>
<polygon fill="black" stroke="black" stroke-width="0.11" points="155.33,-37.4 155.07,-36.26 154.56,-37.31 155.33,-37.4"/>
</g>
<!-- 7 -->
<g id="node4" class="node">
<title>7</title>
<ellipse fill="none" stroke="black" cx="142.93" cy="-230.64" rx="27" ry="18"/>
<text text-anchor="middle" x="142.93" y="-226.94" font-family="Times,serif" font-size="14.00">7</text>
</g>
<!-- 0&#45;&gt;7 -->
<g id="edge4" class="edge">
<title>0&#45;&gt;7</title>
<path fill="none" stroke="black" stroke-width="0.11" d="M127.2,-141.9C127.45,-161.39 131.03,-192.09 135.31,-211.79"/>
<polygon fill="black" stroke="black" stroke-width="0.11" points="135.01,-212.2 135.62,-213.19 135.76,-212.04 135.01,-212.2"/>
</g>
<!-- 6 -->
<g id="node5" class="node">
<title>6</title>
<ellipse fill="none" stroke="black" cx="209" cy="-197.08" rx="27" ry="18"/>
<text text-anchor="middle" x="209" y="-193.38" font-family="Times,serif" font-size="14.00">6</text>
</g>
<!-- 0&#45;&gt;6 -->
<g id="edge5" class="edge">
<title>0&#45;&gt;6</title>
<path fill="none" stroke="black" stroke-width="0.11" d="M140.69,-140.64C152.55,-154.09 171.93,-172.36 187.08,-184.53"/>
<polygon fill="black" stroke="black" stroke-width="0.11" points="187.07,-185.01 188.17,-185.39 187.55,-184.4 187.07,-185.01"/>
</g>
<!-- 5 -->
<g id="node6" class="node">
<title>5</title>
<ellipse fill="none" stroke="black" cx="71.03" cy="-213.62" rx="27" ry="18"/>
<text text-anchor="middle" x="71.03" y="-209.92" font-family="Times,serif" font-size="14.00">5</text>
</g>
<!-- 0&#45;&gt;5 -->
<g id="edge6" class="edge">
<title>0&#45;&gt;5</title>
<path fill="none" stroke="black" stroke-width="0.11" d="M113.94,-138.38C101.78,-153.74 86.07,-177.72 77.22,-194.51"/>
<polygon fill="black" stroke="black" stroke-width="0.11" points="76.76,-194.56 76.6,-195.71 77.45,-194.91 76.76,-194.56"/>
</g>
<!-- 4 -->
<g id="node7" class="node">
<title>4</title>
<ellipse fill="none" stroke="black" cx="30.78" cy="-80.84" rx="27" ry="18"/>
<text text-anchor="middle" x="30.78" y="-77.14" font-family="Times,serif" font-size="14.00">4</text>
</g>
<!-- 0&#45;&gt;4 -->
<g id="edge7" class="edge">
<title>0&#45;&gt;4</title>
<path fill="none" stroke="black" stroke-width="0.11" d="M112.3,-109.87C97.24,-101.81 75.53,-92.32 58.28,-86.19"/>
<polygon fill="black" stroke="black" stroke-width="0.11" points="58.21,-85.76 57.05,-85.75 57.96,-86.48 58.21,-85.76"/>
</g>
<!-- 3 -->
<g id="node8" class="node">
<title>3</title>
<ellipse fill="none" stroke="black" cx="237.88" cy="-128.86" rx="27" ry="18"/>
<text text-anchor="middle" x="237.88" y="-125.16" font-family="Times,serif" font-size="14.00">3</text>
</g>
<!-- 0&#45;&gt;3 -->
<g id="edge8" class="edge">
<title>0&#45;&gt;3</title>
<path fill="none" stroke="black" stroke-width="0.11" d="M155.19,-130.66C171.76,-132.67 193.51,-133.77 210.55,-133.48"/>
<polygon fill="black" stroke="black" stroke-width="0.11" points="210.68,-133.87 211.77,-133.46 210.66,-133.1 210.68,-133.87"/>
</g>
<!-- 2 -->
<g id="node9" class="node">
<title>2</title>
<ellipse fill="none" stroke="black" cx="81.45" cy="-28.15" rx="27" ry="18"/>
<text text-anchor="middle" x="81.45" y="-24.45" font-family="Times,serif" font-size="14.00">2</text>
</g>
<!-- 0&#45;&gt;2 -->
<g id="edge9" class="edge">
<title>0&#45;&gt;2</title>
<path fill="none" stroke="black" stroke-width="0.11" d="M126.78,-105.51C120.08,-88.06 106.89,-61.96 96.27,-44.96"/>
<polygon fill="black" stroke="black" stroke-width="0.11" points="96.42,-44.48 95.51,-43.75 95.77,-44.89 96.42,-44.48"/>
</g>
<!-- 1 -->
<g id="node10" class="node">
<title>1</title>
<ellipse fill="none" stroke="black" cx="215.9" cy="-58.34" rx="27" ry="18"/>
<text text-anchor="middle" x="215.9" y="-54.64" font-family="Times,serif" font-size="14.00">1</text>
</g>
<!-- 0&#45;&gt;1 -->
<g id="edge10" class="edge">
<title>0&#45;&gt;1</title>
<path fill="none" stroke="black" stroke-width="0.11" d="M153.17,-113.39C168.97,-103.12 189.33,-87.48 202.56,-75.39"/>
<polygon fill="black" stroke="black" stroke-width="0.11" points="202.96,-75.55 203.5,-74.53 202.43,-74.99 202.96,-75.55"/>
</g>
<!-- 8&#45;&gt;0 -->
<g id="edge11" class="edge">
<title>8&#45;&gt;0</title>
<path fill="none" stroke="black" d="M144.64,-35.25C139.25,-51.53 133.47,-76.22 130.45,-95.38"/>
<polygon fill="black" stroke="black" points="126.97,-94.98 129.07,-105.36 133.9,-95.93 126.97,-94.98"/>
</g>
<!-- 7&#45;&gt;0 -->
<g id="edge12" class="edge">
<title>7&#45;&gt;0</title>
<path fill="none" stroke="black" d="M145.97,-212.36C145.75,-195.52 143.05,-170.31 139.56,-151.06"/>
<polygon fill="black" stroke="black" points="142.95,-150.18 137.55,-141.06 136.09,-151.56 142.95,-150.18"/>
</g>
<!-- 6&#45;&gt;0 -->
<g id="edge13" class="edge">
<title>6&#45;&gt;0</title>
<path fill="none" stroke="black" d="M198.55,-180.06C188.4,-168.55 172.74,-153.5 158.93,-141.77"/>
<polygon fill="black" stroke="black" points="161.02,-138.96 151.08,-135.31 156.57,-144.37 161.02,-138.96"/>
</g>
<!-- 5&#45;&gt;0 -->
<g id="edge14" class="edge">
<title>5&#45;&gt;0</title>
<path fill="none" stroke="black" d="M87.32,-198.86C97.74,-185.71 110.75,-166.25 119.83,-150.38"/>
<polygon fill="black" stroke="black" points="122.94,-151.98 124.67,-141.53 116.8,-148.62 122.94,-151.98"/>
</g>
<!-- 4&#45;&gt;0 -->
<g id="edge15" class="edge">
<title>4&#45;&gt;0</title>
<path fill="none" stroke="black" d="M48.71,-94.6C61.36,-101.36 78.71,-109.14 94.15,-115.09"/>
<polygon fill="black" stroke="black" points="93.37,-118.53 103.96,-118.71 95.79,-111.97 93.37,-118.53"/>
</g>
<!-- 3&#45;&gt;0 -->
<g id="edge16" class="edge">
<title>3&#45;&gt;0</title>
<path fill="none" stroke="black" d="M212.93,-121.82C199.14,-120.15 181.77,-119.11 166.51,-118.97"/>
<polygon fill="black" stroke="black" points="166.33,-115.47 156.35,-119.02 166.37,-122.47 166.33,-115.47"/>
</g>
<!-- 2&#45;&gt;0 -->
<g id="edge17" class="edge">
<title>2&#45;&gt;0</title>
<path fill="none" stroke="black" d="M84.91,-46.27C90.69,-61.34 101.33,-82.88 110.96,-99.42"/>
<polygon fill="black" stroke="black" points="108,-101.28 116.17,-108.02 113.99,-97.65 108,-101.28"/>
</g>
<!-- 1&#45;&gt;0 -->
<g id="edge18" class="edge">
<title>1&#45;&gt;0</title>
<path fill="none" stroke="black" d="M192.97,-68.57C179.7,-77.2 163.21,-89.61 150.43,-100.53"/>
<polygon fill="black" stroke="black" points="147.8,-98.19 142.64,-107.44 152.44,-103.43 147.8,-98.19"/>
</g>
</g>
</svg>
