<?xml version="1.0" encoding="UTF-8" standalone="no"?>
<!DOCTYPE svg PUBLIC "-//W3C//DTD SVG 1.1//EN"
 "http://www.w3.org/Graphics/SVG/1.1/DTD/svg11.dtd">
<!-- Generated by graphviz version 2.42.3 (0)
 -->
<!-- Title: %3 Pages: 1 -->
<svg width="364pt" height="352pt"
 viewBox="0.00 0.00 363.69 352.05" xmlns="http://www.w3.org/2000/svg" xmlns:xlink="http://www.w3.org/1999/xlink">
<g id="graph0" class="graph" transform="scale(1 1) rotate(0) translate(4 348.05)">
<title>%3</title>
<polygon fill="white" stroke="transparent" points="-4,4 -4,-348.05 359.69,-348.05 359.69,4 -4,4"/>
<!-- 10 -->
<g id="node1" class="node">
<title>10</title>
<ellipse fill="none" stroke="black" cx="149.43" cy="-326.05" rx="27" ry="18"/>
<text text-anchor="middle" x="149.43" y="-322.35" font-family="Times,serif" font-size="14.00">10</text>
</g>
<!-- 9 -->
<g id="node2" class="node">
<title>9</title>
<ellipse fill="none" stroke="black" cx="170.29" cy="-250.04" rx="27" ry="18"/>
<text text-anchor="middle" x="170.29" y="-246.34" font-family="Times,serif" font-size="14.00">9</text>
</g>
<!-- 10&#45;&gt;9 -->
<g id="edge1" class="edge">
<title>10&#45;&gt;9</title>
<path fill="none" stroke="black" d="M160.15,-309.21C163.6,-300.09 166.96,-288.6 169.27,-278.17"/>
<polygon fill="black" stroke="black" points="172.74,-278.71 171.21,-268.22 165.86,-277.37 172.74,-278.71"/>
</g>
<!-- 9&#45;&gt;10 -->
<g id="edge2" class="edge">
<title>9&#45;&gt;10</title>
<path fill="none" stroke="black" stroke-width="0.5" d="M159.57,-266.89C155.58,-277.43 151.72,-291.14 149.44,-302.72"/>
<polygon fill="black" stroke="black" stroke-width="0.5" points="147.68,-302.64 148.51,-307.87 151.13,-303.26 147.68,-302.64"/>
</g>
<!-- 0 -->
<g id="node3" class="node">
<title>0</title>
<ellipse fill="none" stroke="black" cx="189.01" cy="-168.41" rx="27" ry="18"/>
<text text-anchor="middle" x="189.01" y="-164.71" font-family="Times,serif" font-size="14.00">0</text>
</g>
<!-- 9&#45;&gt;0 -->
<g id="edge3" class="edge">
<title>9&#45;&gt;0</title>
<path fill="none" stroke="black" stroke-width="0.5" d="M180.02,-233.2C184.05,-221.21 187.9,-204.94 189.89,-191.71"/>
<polygon fill="black" stroke="black" stroke-width="0.5" points="191.64,-191.8 190.58,-186.61 188.18,-191.33 191.64,-191.8"/>
</g>
<!-- 0&#45;&gt;9 -->
<g id="edge4" class="edge">
<title>0&#45;&gt;9</title>
<path fill="none" stroke="black" stroke-width="0.2" d="M179.28,-185.25C174.93,-198.2 170.79,-216.12 168.97,-229.85"/>
<polygon fill="black" stroke="black" stroke-width="0.2" points="168.28,-229.77 168.72,-231.84 169.67,-229.94 168.28,-229.77"/>
</g>
<!-- 7 -->
<g id="node4" class="node">
<title>7</title>
<ellipse fill="none" stroke="black" cx="260.65" cy="-211.85" rx="27" ry="18"/>
<text text-anchor="middle" x="260.65" y="-208.15" font-family="Times,serif" font-size="14.00">7</text>
</g>
<!-- 0&#45;&gt;7 -->
<g id="edge5" class="edge">
<title>0&#45;&gt;7</title>
<path fill="none" stroke="black" stroke-width="0.2" d="M203.31,-183.95C212.2,-190.48 223.84,-197.73 234.34,-203.32"/>
<polygon fill="black" stroke="black" stroke-width="0.2" points="234.05,-203.96 236.15,-204.27 234.7,-202.72 234.05,-203.96"/>
</g>
<!-- 5 -->
<g id="node5" class="node">
<title>5</title>
<ellipse fill="none" stroke="black" cx="105.61" cy="-175.43" rx="27" ry="18"/>
<text text-anchor="middle" x="105.61" y="-171.73" font-family="Times,serif" font-size="14.00">5</text>
</g>
<!-- 0&#45;&gt;5 -->
<g id="edge6" class="edge">
<title>0&#45;&gt;5</title>
<path fill="none" stroke="black" stroke-width="0.2" d="M162.55,-164.31C152.89,-164.55 141.97,-165.45 132.29,-166.79"/>
<polygon fill="black" stroke="black" stroke-width="0.2" points="131.74,-166.16 129.86,-167.14 131.94,-167.55 131.74,-166.16"/>
</g>
<!-- 3 -->
<g id="node6" class="node">
<title>3</title>
<ellipse fill="none" stroke="black" cx="252.2" cy="-113.63" rx="27" ry="18"/>
<text text-anchor="middle" x="252.2" y="-109.93" font-family="Times,serif" font-size="14.00">3</text>
</g>
<!-- 0&#45;&gt;3 -->
<g id="edge7" class="edge">
<title>0&#45;&gt;3</title>
<path fill="none" stroke="black" stroke-width="0.2" d="M210.99,-157.51C220.71,-150.2 231.74,-140.56 239.99,-132.11"/>
<polygon fill="black" stroke="black" stroke-width="0.2" points="240.72,-132.37 241.61,-130.44 239.72,-131.4 240.72,-132.37"/>
</g>
<!-- 1 -->
<g id="node7" class="node">
<title>1</title>
<ellipse fill="none" stroke="black" cx="156.24" cy="-91.32" rx="27" ry="18"/>
<text text-anchor="middle" x="156.24" y="-87.62" font-family="Times,serif" font-size="14.00">1</text>
</g>
<!-- 0&#45;&gt;1 -->
<g id="edge8" class="edge">
<title>0&#45;&gt;1</title>
<path fill="none" stroke="black" stroke-width="0.2" d="M187.37,-150.25C183.58,-137.76 176.73,-121.31 170.25,-108.95"/>
<polygon fill="black" stroke="black" stroke-width="0.2" points="170.85,-108.59 169.3,-107.16 169.62,-109.25 170.85,-108.59"/>
</g>
<!-- 7&#45;&gt;0 -->
<g id="edge11" class="edge">
<title>7&#45;&gt;0</title>
<path fill="none" stroke="black" stroke-width="0.5" d="M246.36,-196.31C238.2,-190.32 227.73,-183.72 217.95,-178.36"/>
<polygon fill="black" stroke="black" stroke-width="0.5" points="218.75,-176.8 213.52,-175.98 217.1,-179.89 218.75,-176.8"/>
</g>
<!-- 8 -->
<g id="node8" class="node">
<title>8</title>
<ellipse fill="none" stroke="black" cx="328.69" cy="-251.6" rx="27" ry="18"/>
<text text-anchor="middle" x="328.69" y="-247.9" font-family="Times,serif" font-size="14.00">8</text>
</g>
<!-- 7&#45;&gt;8 -->
<g id="edge10" class="edge">
<title>7&#45;&gt;8</title>
<path fill="none" stroke="black" stroke-width="0.5" d="M275.15,-227.26C282.22,-232.25 290.95,-237.58 299.31,-242.06"/>
<polygon fill="black" stroke="black" stroke-width="0.5" points="298.65,-243.69 303.9,-244.45 300.27,-240.59 298.65,-243.69"/>
</g>
<!-- 5&#45;&gt;0 -->
<g id="edge14" class="edge">
<title>5&#45;&gt;0</title>
<path fill="none" stroke="black" stroke-width="0.5" d="M132.07,-179.53C140.83,-179.31 150.63,-178.55 159.59,-177.41"/>
<polygon fill="black" stroke="black" stroke-width="0.5" points="160.05,-179.12 164.76,-176.7 159.57,-175.65 160.05,-179.12"/>
</g>
<!-- 6 -->
<g id="node9" class="node">
<title>6</title>
<ellipse fill="none" stroke="black" cx="27" cy="-181.44" rx="27" ry="18"/>
<text text-anchor="middle" x="27" y="-177.74" font-family="Times,serif" font-size="14.00">6</text>
</g>
<!-- 5&#45;&gt;6 -->
<g id="edge13" class="edge">
<title>5&#45;&gt;6</title>
<path fill="none" stroke="black" stroke-width="0.5" d="M79.38,-171.04C72,-171.18 63.93,-171.73 56.38,-172.6"/>
<polygon fill="black" stroke="black" stroke-width="0.5" points="55.99,-170.88 51.25,-173.25 56.43,-174.36 55.99,-170.88"/>
</g>
<!-- 3&#45;&gt;0 -->
<g id="edge17" class="edge">
<title>3&#45;&gt;0</title>
<path fill="none" stroke="black" stroke-width="0.5" d="M230.23,-124.53C221.32,-131.22 211.31,-139.88 203.34,-147.78"/>
<polygon fill="black" stroke="black" stroke-width="0.5" points="201.86,-146.8 199.61,-151.59 204.36,-149.25 201.86,-146.8"/>
</g>
<!-- 4 -->
<g id="node10" class="node">
<title>4</title>
<ellipse fill="none" stroke="black" cx="311.79" cy="-61.99" rx="27" ry="18"/>
<text text-anchor="middle" x="311.79" y="-58.29" font-family="Times,serif" font-size="14.00">4</text>
</g>
<!-- 3&#45;&gt;4 -->
<g id="edge16" class="edge">
<title>3&#45;&gt;4</title>
<path fill="none" stroke="black" stroke-width="0.5" d="M274.17,-102.85C282.01,-96.94 290.6,-89.51 297.63,-82.58"/>
<polygon fill="black" stroke="black" stroke-width="0.5" points="299.1,-83.58 301.36,-78.79 296.6,-81.12 299.1,-83.58"/>
</g>
<!-- 1&#45;&gt;0 -->
<g id="edge20" class="edge">
<title>1&#45;&gt;0</title>
<path fill="none" stroke="black" stroke-width="0.5" d="M157.88,-109.48C161.39,-121.04 167.53,-136.01 173.56,-147.98"/>
<polygon fill="black" stroke="black" stroke-width="0.5" points="172.09,-148.95 175.95,-152.57 175.2,-147.33 172.09,-148.95"/>
</g>
<!-- 2 -->
<g id="node11" class="node">
<title>2</title>
<ellipse fill="none" stroke="black" cx="127.24" cy="-18" rx="27" ry="18"/>
<text text-anchor="middle" x="127.24" y="-14.3" font-family="Times,serif" font-size="14.00">2</text>
</g>
<!-- 1&#45;&gt;2 -->
<g id="edge19" class="edge">
<title>1&#45;&gt;2</title>
<path fill="none" stroke="black" stroke-width="0.5" d="M155.22,-73.32C152.32,-62.79 147.29,-49.49 142.15,-38.55"/>
<polygon fill="black" stroke="black" stroke-width="0.5" points="143.71,-37.75 139.95,-34.02 140.56,-39.29 143.71,-37.75"/>
</g>
<!-- 8&#45;&gt;7 -->
<g id="edge9" class="edge">
<title>8&#45;&gt;7</title>
<path fill="none" stroke="black" d="M314.19,-236.19C308.43,-232.13 301.57,-227.84 294.7,-223.96"/>
<polygon fill="black" stroke="black" points="295.91,-220.64 285.44,-219 292.61,-226.81 295.91,-220.64"/>
</g>
<!-- 6&#45;&gt;5 -->
<g id="edge12" class="edge">
<title>6&#45;&gt;5</title>
<path fill="none" stroke="black" d="M53.23,-185.83C59.05,-185.72 65.3,-185.35 71.38,-184.78"/>
<polygon fill="black" stroke="black" points="71.83,-188.25 81.36,-183.62 71.03,-181.29 71.83,-188.25"/>
</g>
<!-- 4&#45;&gt;3 -->
<g id="edge15" class="edge">
<title>4&#45;&gt;3</title>
<path fill="none" stroke="black" d="M289.82,-72.76C283.29,-77.69 276.24,-83.67 270,-89.54"/>
<polygon fill="black" stroke="black" points="267.29,-87.31 262.64,-96.83 272.21,-92.28 267.29,-87.31"/>
</g>
<!-- 2&#45;&gt;1 -->
<g id="edge18" class="edge">
<title>2&#45;&gt;1</title>
<path fill="none" stroke="black" d="M128.25,-36C130.74,-45.02 134.79,-56.09 139.14,-65.95"/>
<polygon fill="black" stroke="black" points="136.11,-67.74 143.53,-75.3 142.44,-64.76 136.11,-67.74"/>
</g>
</g>
</svg>
