<?xml version="1.0" encoding="UTF-8" standalone="no"?>
<!DOCTYPE svg PUBLIC "-//W3C//DTD SVG 1.1//EN"
 "http://www.w3.org/Graphics/SVG/1.1/DTD/svg11.dtd">
<!-- Generated by graphviz version 2.42.3 (0)
 -->
<!-- Title: %3 Pages: 1 -->
<svg width="407pt" height="216pt"
 viewBox="0.00 0.00 407.33 215.52" xmlns="http://www.w3.org/2000/svg" xmlns:xlink="http://www.w3.org/1999/xlink">
<g id="graph0" class="graph" transform="scale(1 1) rotate(0) translate(4 211.52)">
<title>%3</title>
<polygon fill="white" stroke="transparent" points="-4,4 -4,-211.52 403.33,-211.52 403.33,4 -4,4"/>
<!-- 7 -->
<g id="node1" class="node">
<title>7</title>
<ellipse fill="none" stroke="black" cx="27" cy="-79.61" rx="27" ry="18"/>
<text text-anchor="middle" x="27" y="-75.91" font-family="Times,serif" font-size="14.00">7</text>
</g>
<!-- 1 -->
<g id="node2" class="node">
<title>1</title>
<ellipse fill="none" stroke="black" cx="278.39" cy="-84.18" rx="27" ry="18"/>
<text text-anchor="middle" x="278.39" y="-80.48" font-family="Times,serif" font-size="14.00">1</text>
</g>
<!-- 7&#45;&gt;1 -->
<g id="edge1" class="edge">
<title>7&#45;&gt;1</title>
<path fill="none" stroke="black" stroke-width="10" d="M54.38,-80.1C99.53,-80.92 189.66,-82.56 240.76,-83.49"/>
<polygon fill="black" stroke="black" stroke-width="10" points="240.88,-92.25 251.04,-83.68 241.2,-74.75 240.88,-92.25"/>
</g>
<!-- 6 -->
<g id="node3" class="node">
<title>6</title>
<ellipse fill="none" stroke="black" cx="177.5" cy="-18" rx="27" ry="18"/>
<text text-anchor="middle" x="177.5" y="-14.3" font-family="Times,serif" font-size="14.00">6</text>
</g>
<!-- 1&#45;&gt;6 -->
<g id="edge3" class="edge">
<title>1&#45;&gt;6</title>
<path fill="none" stroke="black" stroke-width="3.3" d="M258.94,-71.42C241.35,-59.88 215.56,-42.97 197.73,-31.27"/>
<polygon fill="black" stroke="black" stroke-width="3.3" points="197.92,-30.98 196.89,-30.72 197.54,-31.56 197.92,-30.98"/>
</g>
<!-- 4 -->
<g id="node4" class="node">
<title>4</title>
<ellipse fill="none" stroke="black" cx="372.33" cy="-129.27" rx="27" ry="18"/>
<text text-anchor="middle" x="372.33" y="-125.57" font-family="Times,serif" font-size="14.00">4</text>
</g>
<!-- 1&#45;&gt;4 -->
<g id="edge4" class="edge">
<title>1&#45;&gt;4</title>
<path fill="none" stroke="black" stroke-width="3.3" d="M300.65,-94.86C315.27,-101.88 334.37,-111.05 349.17,-118.15"/>
<polygon fill="black" stroke="black" stroke-width="3.3" points="349.17,-118.54 350.23,-118.66 349.48,-117.91 349.17,-118.54"/>
</g>
<!-- 2 -->
<g id="node5" class="node">
<title>2</title>
<ellipse fill="none" stroke="black" cx="165.5" cy="-117" rx="27" ry="18"/>
<text text-anchor="middle" x="165.5" y="-113.3" font-family="Times,serif" font-size="14.00">2</text>
</g>
<!-- 1&#45;&gt;2 -->
<g id="edge5" class="edge">
<title>1&#45;&gt;2</title>
<path fill="none" stroke="black" stroke-width="3.3" d="M253.61,-91.38C235.36,-96.69 210.57,-103.9 191.94,-109.32"/>
<polygon fill="black" stroke="black" stroke-width="3.3" points="191.47,-109.09 190.61,-109.7 191.66,-109.76 191.47,-109.09"/>
</g>
<!-- 6&#45;&gt;7 -->
<g id="edge2" class="edge">
<title>6&#45;&gt;7</title>
<path fill="none" stroke="black" stroke-width="10" d="M154.31,-27.49C129.09,-37.82 88.55,-54.41 60.01,-66.09"/>
<polygon fill="black" stroke="black" stroke-width="10" points="56.4,-58.12 50.46,-70 63.03,-74.31 56.4,-58.12"/>
</g>
<!-- 5 -->
<g id="node6" class="node">
<title>5</title>
<ellipse fill="none" stroke="black" cx="364.41" cy="-25.37" rx="27" ry="18"/>
<text text-anchor="middle" x="364.41" y="-21.67" font-family="Times,serif" font-size="14.00">5</text>
</g>
<!-- 4&#45;&gt;5 -->
<g id="edge7" class="edge">
<title>4&#45;&gt;5</title>
<path fill="none" stroke="black" stroke-width="10" d="M370.95,-111.17C369.74,-95.33 367.97,-72.04 366.57,-53.72"/>
<polygon fill="black" stroke="black" stroke-width="10" points="375.28,-52.91 365.8,-43.61 357.83,-54.24 375.28,-52.91"/>
</g>
<!-- 3 -->
<g id="node7" class="node">
<title>3</title>
<ellipse fill="none" stroke="black" cx="199.8" cy="-189.52" rx="27" ry="18"/>
<text text-anchor="middle" x="199.8" y="-185.82" font-family="Times,serif" font-size="14.00">3</text>
</g>
<!-- 2&#45;&gt;3 -->
<g id="edge9" class="edge">
<title>2&#45;&gt;3</title>
<path fill="none" stroke="black" stroke-width="10" d="M173.63,-134.19C177.67,-142.73 182.64,-153.25 187.17,-162.81"/>
<polygon fill="black" stroke="black" stroke-width="10" points="179.3,-166.65 191.49,-171.95 195.12,-159.17 179.3,-166.65"/>
</g>
<!-- 5&#45;&gt;1 -->
<g id="edge6" class="edge">
<title>5&#45;&gt;1</title>
<path fill="none" stroke="black" stroke-width="10" d="M345.32,-38.42C333.74,-46.34 318.76,-56.58 305.91,-65.36"/>
<polygon fill="black" stroke="black" stroke-width="10" points="300.74,-58.3 297.43,-71.16 310.62,-72.74 300.74,-58.3"/>
</g>
<!-- 3&#45;&gt;1 -->
<g id="edge8" class="edge">
<title>3&#45;&gt;1</title>
<path fill="none" stroke="black" stroke-width="10" d="M212.08,-173.06C224.94,-155.82 245.28,-128.55 260.05,-108.76"/>
<polygon fill="black" stroke="black" stroke-width="10" points="267.23,-113.77 266.19,-100.52 253.2,-103.3 267.23,-113.77"/>
</g>
</g>
</svg>
