<?xml version="1.0" encoding="UTF-8" standalone="no"?>
<!DOCTYPE svg PUBLIC "-//W3C//DTD SVG 1.1//EN"
 "http://www.w3.org/Graphics/SVG/1.1/DTD/svg11.dtd">
<!-- Generated by graphviz version 2.42.3 (0)
 -->
<!-- Title: %3 Pages: 1 -->
<svg width="309pt" height="692pt"
 viewBox="0.00 0.00 308.81 692.00" xmlns="http://www.w3.org/2000/svg" xmlns:xlink="http://www.w3.org/1999/xlink">
<g id="graph0" class="graph" transform="scale(1 1) rotate(0) translate(4 688)">
<title>%3</title>
<polygon fill="white" stroke="transparent" points="-4,4 -4,-688 304.81,-688 304.81,4 -4,4"/>
<!-- X -->
<g id="node1" class="node">
<title>X</title>
<ellipse fill="none" stroke="black" cx="41.6" cy="-666" rx="27" ry="18"/>
<text text-anchor="middle" x="41.6" y="-662.3" font-family="Times,serif" font-size="14.00">X</text>
</g>
<!-- X, X -->
<g id="node2" class="node">
<title>X, X</title>
<ellipse fill="none" stroke="black" cx="134.6" cy="-594" rx="27" ry="18"/>
<text text-anchor="middle" x="134.6" y="-590.3" font-family="Times,serif" font-size="14.00">X, X</text>
</g>
<!-- X&#45;&gt;X, X -->
<g id="edge1" class="edge">
<title>X&#45;&gt;X, X</title>
<path fill="none" stroke="black" stroke-width="0.4" d="M59.09,-651.83C74.68,-640.1 97.51,-622.92 113.98,-610.52"/>
<polygon fill="black" stroke="black" stroke-width="0.4" points="114.83,-611.63 117.18,-608.11 113.14,-609.39 114.83,-611.63"/>
</g>
<!-- ~ -->
<g id="node3" class="node">
<title>~</title>
<ellipse fill="none" stroke="black" cx="172.6" cy="-450" rx="27" ry="18"/>
<text text-anchor="middle" x="172.6" y="-446.3" font-family="Times,serif" font-size="14.00">~</text>
</g>
<!-- X&#45;&gt;~ -->
<g id="edge2" class="edge">
<title>X&#45;&gt;~</title>
<path fill="none" stroke="black" stroke-width="0.3" d="M65.99,-658.02C110.99,-644.79 204.27,-610.81 233.6,-540 239.72,-525.22 240.72,-518.33 233.6,-504 225.07,-486.85 208.06,-473.77 194,-464.9"/>
<polygon fill="black" stroke="black" stroke-width="0.3" points="194.33,-463.87 191.23,-463.18 193.23,-465.65 194.33,-463.87"/>
</g>
<!-- H -->
<g id="node4" class="node">
<title>H</title>
<ellipse fill="none" stroke="black" cx="96.6" cy="-378" rx="27" ry="18"/>
<text text-anchor="middle" x="96.6" y="-374.3" font-family="Times,serif" font-size="14.00">H</text>
</g>
<!-- X&#45;&gt;H -->
<g id="edge3" class="edge">
<title>X&#45;&gt;H</title>
<path fill="none" stroke="black" stroke-width="0.3" d="M46.5,-647.9C49.37,-637.56 52.94,-624.08 55.6,-612 72.74,-533.96 87.5,-439.98 93.6,-399.35"/>
<polygon fill="black" stroke="black" stroke-width="0.3" points="94.69,-399.17 94.1,-396.05 92.62,-398.86 94.69,-399.17"/>
</g>
<!-- X, X&#45;&gt;~ -->
<g id="edge7" class="edge">
<title>X, X&#45;&gt;~</title>
<path fill="none" stroke="black" stroke-width="0.3" d="M156.55,-583.47C181.2,-572.26 218.8,-553.49 226.6,-540 234.6,-526.15 232.79,-518.75 226.6,-504 219.88,-487.99 205.7,-474.38 193.56,-464.96"/>
<polygon fill="black" stroke="black" stroke-width="0.3" points="194.18,-464.12 191.16,-463.14 192.91,-465.79 194.18,-464.12"/>
</g>
<!-- X, X&#45;&gt;H -->
<g id="edge6" class="edge">
<title>X, X&#45;&gt;H</title>
<path fill="none" stroke="black" stroke-width="0.3" d="M131.55,-575.85C124.6,-536.7 107.59,-440.92 100.16,-399.09"/>
<polygon fill="black" stroke="black" stroke-width="0.3" points="101.16,-398.71 99.6,-395.94 99.09,-399.07 101.16,-398.71"/>
</g>
<!-- X, X, X -->
<g id="node5" class="node">
<title>X, X, X</title>
<ellipse fill="none" stroke="black" cx="181.6" cy="-522" rx="36.29" ry="18"/>
<text text-anchor="middle" x="181.6" y="-518.3" font-family="Times,serif" font-size="14.00">X, X, X</text>
</g>
<!-- X, X&#45;&gt;X, X, X -->
<g id="edge5" class="edge">
<title>X, X&#45;&gt;X, X, X</title>
<path fill="none" stroke="black" stroke-width="0.4" d="M145.26,-577.12C152.07,-566.97 160.96,-553.73 168.25,-542.88"/>
<polygon fill="black" stroke="black" stroke-width="0.4" points="169.58,-543.41 170.65,-539.31 167.26,-541.85 169.58,-543.41"/>
</g>
<!-- ~&#45;&gt;X -->
<g id="edge17" class="edge">
<title>~&#45;&gt;X</title>
<path fill="none" stroke="black" stroke-width="0.34" d="M196.61,-458.4C215.8,-466.73 240.67,-482.02 251.6,-504 258.72,-518.33 257.72,-525.22 251.6,-540 221.11,-613.59 121.55,-647.41 71.09,-659.49"/>
<polygon fill="black" stroke="black" stroke-width="0.34" points="70.58,-658.38 67.54,-660.32 71.12,-660.7 70.58,-658.38"/>
</g>
<!-- ~&#45;&gt;H -->
<g id="edge16" class="edge">
<title>~&#45;&gt;H</title>
<path fill="none" stroke="black" stroke-width="0.33" d="M154.09,-436.81C140.43,-425.79 122.43,-409.43 110.08,-396.93"/>
<polygon fill="black" stroke="black" stroke-width="0.33" points="110.82,-396.03 107.69,-394.48 109.17,-397.65 110.82,-396.03"/>
</g>
<!-- O -->
<g id="node6" class="node">
<title>O</title>
<ellipse fill="none" stroke="black" cx="96.6" cy="-162" rx="27" ry="18"/>
<text text-anchor="middle" x="96.6" y="-158.3" font-family="Times,serif" font-size="14.00">O</text>
</g>
<!-- ~&#45;&gt;O -->
<g id="edge15" class="edge">
<title>~&#45;&gt;O</title>
<path fill="none" stroke="black" stroke-width="0.33" d="M182.88,-433.06C213.38,-393.04 295.39,-286.48 243.6,-216 211.88,-172.84 178.94,-198.27 128.6,-180 125.45,-178.86 122.18,-177.61 118.98,-176.33"/>
<polygon fill="black" stroke="black" stroke-width="0.33" points="119.29,-175.21 115.8,-175.04 118.43,-177.35 119.29,-175.21"/>
</g>
<!-- H&#45;&gt;~ -->
<g id="edge8" class="edge">
<title>H&#45;&gt;~</title>
<path fill="none" stroke="black" stroke-width="0.3" d="M115.16,-391.24C128.8,-402.24 146.73,-418.54 159.06,-431.02"/>
<polygon fill="black" stroke="black" stroke-width="0.3" points="158.6,-432.05 161.45,-433.46 160.1,-430.59 158.6,-432.05"/>
</g>
<!-- H&#45;&gt;O -->
<g id="edge9" class="edge">
<title>H&#45;&gt;O</title>
<path fill="none" stroke="black" stroke-width="0.5" d="M96.6,-359.85C96.6,-321.42 96.6,-228.44 96.6,-185.46"/>
<polygon fill="black" stroke="black" stroke-width="0.5" points="98.35,-185.23 96.6,-180.23 94.85,-185.23 98.35,-185.23"/>
</g>
<!-- H, H -->
<g id="node7" class="node">
<title>H, H</title>
<ellipse fill="none" stroke="black" cx="174.6" cy="-306" rx="29.5" ry="18"/>
<text text-anchor="middle" x="174.6" y="-302.3" font-family="Times,serif" font-size="14.00">H, H</text>
</g>
<!-- H&#45;&gt;H, H -->
<g id="edge10" class="edge">
<title>H&#45;&gt;H, H</title>
<path fill="none" stroke="black" stroke-width="0.2" d="M112.01,-363.17C124.98,-351.53 143.52,-334.89 157.06,-322.74"/>
<polygon fill="black" stroke="black" stroke-width="0.2" points="157.66,-323.14 158.68,-321.28 156.73,-322.1 157.66,-323.14"/>
</g>
<!-- X, X, X&#45;&gt;~ -->
<g id="edge4" class="edge">
<title>X, X, X&#45;&gt;~</title>
<path fill="none" stroke="black" stroke-width="0.4" d="M179.37,-503.7C178.15,-494.2 176.63,-482.35 175.33,-472.29"/>
<polygon fill="black" stroke="black" stroke-width="0.4" points="176.69,-471.89 174.8,-468.1 173.92,-472.25 176.69,-471.89"/>
</g>
<!-- O&#45;&gt;X -->
<g id="edge20" class="edge">
<title>O&#45;&gt;X</title>
<path fill="none" stroke="black" stroke-width="0.25" d="M85.99,-178.84C70.01,-204.28 41.6,-256.36 41.6,-305 41.6,-523 41.6,-523 41.6,-523 41.6,-566.7 41.6,-617.98 41.6,-645.37"/>
<polygon fill="black" stroke="black" stroke-width="0.25" points="40.72,-645.45 41.6,-647.95 42.47,-645.45 40.72,-645.45"/>
</g>
<!-- O&#45;&gt;~ -->
<g id="edge18" class="edge">
<title>O&#45;&gt;~</title>
<path fill="none" stroke="black" stroke-width="0.5" d="M121.03,-170.12C129.31,-173.3 138.34,-177 146.6,-180 196.94,-198.27 229.88,-172.84 261.6,-216 312.87,-285.78 233,-390.93 192.9,-431.85"/>
<polygon fill="black" stroke="black" stroke-width="0.5" points="191.45,-430.83 189.15,-435.61 193.92,-433.3 191.45,-430.83"/>
</g>
<!-- O, O -->
<g id="node9" class="node">
<title>O, O</title>
<ellipse fill="none" stroke="black" cx="41.6" cy="-90" rx="29.8" ry="18"/>
<text text-anchor="middle" x="41.6" y="-86.3" font-family="Times,serif" font-size="14.00">O, O</text>
</g>
<!-- O&#45;&gt;O, O -->
<g id="edge19" class="edge">
<title>O&#45;&gt;O, O</title>
<path fill="none" stroke="black" stroke-width="0.25" d="M84.66,-145.81C76.13,-134.95 64.62,-120.31 55.65,-108.88"/>
<polygon fill="black" stroke="black" stroke-width="0.25" points="56.12,-108.07 53.89,-106.64 54.74,-109.15 56.12,-108.07"/>
</g>
<!-- H, H&#45;&gt;~ -->
<g id="edge13" class="edge">
<title>H, H&#45;&gt;~</title>
<path fill="none" stroke="black" stroke-width="0.3" d="M174.35,-324.19C173.98,-350.45 173.28,-400.47 172.88,-428.56"/>
<polygon fill="black" stroke="black" stroke-width="0.3" points="171.83,-428.86 172.84,-431.87 173.93,-428.89 171.83,-428.86"/>
</g>
<!-- H, H&#45;&gt;O -->
<g id="edge14" class="edge">
<title>H, H&#45;&gt;O</title>
<path fill="none" stroke="black" stroke-width="0.5" d="M195.83,-293.5C210.28,-284.37 228.24,-270.13 236.6,-252 243.29,-237.47 245.78,-229.11 236.6,-216 209.74,-177.65 181.23,-196.97 137.6,-180 133.17,-178.28 128.49,-176.4 123.94,-174.54"/>
<polygon fill="black" stroke="black" stroke-width="0.5" points="124.37,-172.82 119.08,-172.53 123.04,-176.06 124.37,-172.82"/>
</g>
<!-- H, H, H -->
<g id="node8" class="node">
<title>H, H, H</title>
<ellipse fill="none" stroke="black" cx="186.6" cy="-234" rx="40.89" ry="18"/>
<text text-anchor="middle" x="186.6" y="-230.3" font-family="Times,serif" font-size="14.00">H, H, H</text>
</g>
<!-- H, H&#45;&gt;H, H, H -->
<g id="edge12" class="edge">
<title>H, H&#45;&gt;H, H, H</title>
<path fill="none" stroke="black" stroke-width="0.2" d="M177.5,-288.05C179.24,-277.89 181.47,-264.92 183.28,-254.36"/>
<polygon fill="black" stroke="black" stroke-width="0.2" points="183.99,-254.36 183.63,-252.28 182.61,-254.13 183.99,-254.36"/>
</g>
<!-- H, H, H&#45;&gt;O -->
<g id="edge11" class="edge">
<title>H, H, H&#45;&gt;O</title>
<path fill="none" stroke="black" stroke-width="0.2" d="M167.07,-217.81C151.77,-205.91 130.61,-189.45 115.47,-177.68"/>
<polygon fill="black" stroke="black" stroke-width="0.2" points="115.67,-176.95 113.66,-176.27 114.81,-178.05 115.67,-176.95"/>
</g>
<!-- O, O&#45;&gt;X -->
<g id="edge22" class="edge">
<title>O, O&#45;&gt;X</title>
<path fill="none" stroke="black" stroke-width="0.25" d="M69.73,-96.13C122.15,-107.35 233.87,-139.47 282.6,-216 299.8,-243.02 284.93,-255.98 285.6,-288 288.65,-434.67 339.51,-523.39 222.6,-612 177.11,-646.47 109.65,-658.57 71.23,-662.79"/>
<polygon fill="black" stroke="black" stroke-width="0.25" points="70.9,-661.94 68.51,-663.08 71.09,-663.68 70.9,-661.94"/>
</g>
<!-- O, O&#45;&gt;~ -->
<g id="edge23" class="edge">
<title>O, O&#45;&gt;~</title>
<path fill="none" stroke="black" stroke-width="0.5" d="M44.26,-107.97C47.32,-126.06 52.93,-155.42 60.6,-180 76.1,-229.69 139.05,-373.32 163.15,-427.75"/>
<polygon fill="black" stroke="black" stroke-width="0.5" points="161.6,-428.57 165.22,-432.43 164.8,-427.15 161.6,-428.57"/>
</g>
<!-- O, O, O -->
<g id="node10" class="node">
<title>O, O, O</title>
<ellipse fill="none" stroke="black" cx="41.6" cy="-18" rx="41.69" ry="18"/>
<text text-anchor="middle" x="41.6" y="-14.3" font-family="Times,serif" font-size="14.00">O, O, O</text>
</g>
<!-- O, O&#45;&gt;O, O, O -->
<g id="edge24" class="edge">
<title>O, O&#45;&gt;O, O, O</title>
<path fill="none" stroke="black" stroke-width="0.25" d="M41.6,-71.7C41.6,-61.69 41.6,-49.07 41.6,-38.69"/>
<polygon fill="black" stroke="black" stroke-width="0.25" points="42.47,-38.6 41.6,-36.1 40.72,-38.6 42.47,-38.6"/>
</g>
<!-- O, O, O&#45;&gt;~ -->
<g id="edge21" class="edge">
<title>O, O, O&#45;&gt;~</title>
<path fill="none" stroke="black" d="M69.67,-31.6C123.03,-57.31 237.8,-121.52 282.6,-216 317.41,-289.42 299.22,-330.9 250.6,-396 238.39,-412.34 219.6,-425.32 203.52,-434.35"/>
<polygon fill="black" stroke="black" points="201.6,-431.41 194.43,-439.21 204.9,-437.58 201.6,-431.41"/>
</g>
</g>
</svg>
