<?xml version="1.0" encoding="UTF-8" standalone="no"?>
<!DOCTYPE svg PUBLIC "-//W3C//DTD SVG 1.1//EN"
 "http://www.w3.org/Graphics/SVG/1.1/DTD/svg11.dtd">
<!-- Generated by graphviz version 2.42.3 (0)
 -->
<!-- Title: %3 Pages: 1 -->
<svg width="240pt" height="204pt"
 viewBox="0.00 0.00 240.43 204.43" xmlns="http://www.w3.org/2000/svg" xmlns:xlink="http://www.w3.org/1999/xlink">
<g id="graph0" class="graph" transform="scale(1 1) rotate(0) translate(4 200.43)">
<title>%3</title>
<polygon fill="white" stroke="transparent" points="-4,4 -4,-200.43 236.43,-200.43 236.43,4 -4,4"/>
<!-- 4 -->
<g id="node1" class="node">
<title>4</title>
<ellipse fill="none" stroke="black" cx="107.21" cy="-18" rx="27" ry="18"/>
<text text-anchor="middle" x="107.21" y="-14.3" font-family="Times,serif" font-size="14.00">4</text>
</g>
<!-- 4&#45;&gt;4 -->
<g id="edge1" class="edge">
<title>4&#45;&gt;4</title>
<path fill="none" stroke="black" stroke-width="2.5" d="M132.66,-24.69C143.24,-25.15 152.21,-22.92 152.21,-18 152.21,-13.31 144.06,-11.06 134.13,-11.26"/>
<polygon fill="black" stroke="black" stroke-width="2.5" points="133.65,-10.93 132.66,-11.31 133.67,-11.63 133.65,-10.93"/>
</g>
<!-- 3 -->
<g id="node2" class="node">
<title>3</title>
<ellipse fill="none" stroke="black" cx="187.43" cy="-98.21" rx="27" ry="18"/>
<text text-anchor="middle" x="187.43" y="-94.51" font-family="Times,serif" font-size="14.00">3</text>
</g>
<!-- 4&#45;&gt;3 -->
<g id="edge2" class="edge">
<title>4&#45;&gt;3</title>
<path fill="none" stroke="black" stroke-width="2.5" d="M116.81,-34.9C129.1,-49.94 150.36,-71.42 166.42,-85.18"/>
<polygon fill="black" stroke="black" stroke-width="2.5" points="166.19,-85.44 167.18,-85.83 166.65,-84.91 166.19,-85.44"/>
</g>
<!-- 2 -->
<g id="node3" class="node">
<title>2</title>
<ellipse fill="none" stroke="black" cx="107.21" cy="-178.43" rx="27" ry="18"/>
<text text-anchor="middle" x="107.21" y="-174.73" font-family="Times,serif" font-size="14.00">2</text>
</g>
<!-- 4&#45;&gt;2 -->
<g id="edge3" class="edge">
<title>4&#45;&gt;2</title>
<path fill="none" stroke="black" stroke-width="2.5" d="M102.78,-35.78C99.73,-66.26 99.69,-128.2 102.67,-159.47"/>
<polygon fill="black" stroke="black" stroke-width="2.5" points="102.33,-159.61 102.77,-160.57 103.02,-159.54 102.33,-159.61"/>
</g>
<!-- 1 -->
<g id="node4" class="node">
<title>1</title>
<ellipse fill="none" stroke="black" cx="27" cy="-98.21" rx="27" ry="18"/>
<text text-anchor="middle" x="27" y="-94.51" font-family="Times,serif" font-size="14.00">1</text>
</g>
<!-- 4&#45;&gt;1 -->
<g id="edge4" class="edge">
<title>4&#45;&gt;1</title>
<path fill="none" stroke="black" stroke-width="2.5" d="M87.06,-30.31C71.3,-43.7 50.17,-64.94 37.53,-80.18"/>
<polygon fill="black" stroke="black" stroke-width="2.5" points="37,-80.27 36.63,-81.27 37.54,-80.72 37,-80.27"/>
</g>
<!-- 3&#45;&gt;4 -->
<g id="edge6" class="edge">
<title>3&#45;&gt;4</title>
<path fill="none" stroke="black" stroke-width="2.5" d="M177.84,-81.32C165.54,-66.28 144.28,-44.8 128.22,-31.04"/>
<polygon fill="black" stroke="black" stroke-width="2.5" points="128.45,-30.77 127.46,-30.39 127.99,-31.3 128.45,-30.77"/>
</g>
<!-- 3&#45;&gt;3 -->
<g id="edge5" class="edge">
<title>3&#45;&gt;3</title>
<path fill="none" stroke="black" stroke-width="2.5" d="M212.87,-104.9C223.46,-105.37 232.43,-103.14 232.43,-98.21 232.43,-93.52 224.28,-91.28 214.35,-91.48"/>
<polygon fill="black" stroke="black" stroke-width="2.5" points="213.86,-91.14 212.87,-91.52 213.88,-91.84 213.86,-91.14"/>
</g>
<!-- 3&#45;&gt;2 -->
<g id="edge7" class="edge">
<title>3&#45;&gt;2</title>
<path fill="none" stroke="black" stroke-width="2.5" d="M167.27,-110.52C151.51,-123.91 130.38,-145.15 117.74,-160.4"/>
<polygon fill="black" stroke="black" stroke-width="2.5" points="117.21,-160.49 116.84,-161.48 117.75,-160.93 117.21,-160.49"/>
</g>
<!-- 3&#45;&gt;1 -->
<g id="edge8" class="edge">
<title>3&#45;&gt;1</title>
<path fill="none" stroke="black" stroke-width="2.5" d="M161.3,-93.07C131.81,-90.95 84.08,-90.93 54.18,-93"/>
<polygon fill="black" stroke="black" stroke-width="2.5" points="54.09,-92.65 53.12,-93.07 54.14,-93.35 54.09,-92.65"/>
</g>
<!-- 2&#45;&gt;4 -->
<g id="edge10" class="edge">
<title>2&#45;&gt;4</title>
<path fill="none" stroke="black" stroke-width="2.5" d="M111.65,-160.65C114.7,-130.17 114.74,-68.23 111.76,-36.96"/>
<polygon fill="black" stroke="black" stroke-width="2.5" points="112.1,-36.82 111.65,-35.86 111.4,-36.89 112.1,-36.82"/>
</g>
<!-- 2&#45;&gt;3 -->
<g id="edge11" class="edge">
<title>2&#45;&gt;3</title>
<path fill="none" stroke="black" stroke-width="2.5" d="M127.37,-166.12C143.13,-152.73 164.26,-131.49 176.9,-116.25"/>
<polygon fill="black" stroke="black" stroke-width="2.5" points="177.43,-116.15 177.8,-115.16 176.89,-115.71 177.43,-116.15"/>
</g>
<!-- 2&#45;&gt;2 -->
<g id="edge9" class="edge">
<title>2&#45;&gt;2</title>
<path fill="none" stroke="black" stroke-width="2.5" d="M132.66,-185.12C143.24,-185.58 152.21,-183.35 152.21,-178.43 152.21,-173.74 144.06,-171.49 134.13,-171.69"/>
<polygon fill="black" stroke="black" stroke-width="2.5" points="133.65,-171.36 132.66,-171.74 133.67,-172.06 133.65,-171.36"/>
</g>
<!-- 2&#45;&gt;1 -->
<g id="edge12" class="edge">
<title>2&#45;&gt;1</title>
<path fill="none" stroke="black" stroke-width="2.5" d="M97.62,-161.53C85.33,-146.49 64.07,-125.01 48.01,-111.25"/>
<polygon fill="black" stroke="black" stroke-width="2.5" points="48.24,-110.98 47.25,-110.6 47.78,-111.52 48.24,-110.98"/>
</g>
<!-- 1&#45;&gt;4 -->
<g id="edge14" class="edge">
<title>1&#45;&gt;4</title>
<path fill="none" stroke="black" stroke-width="2.5" d="M47.16,-85.91C62.92,-72.52 84.05,-51.27 96.69,-36.03"/>
<polygon fill="black" stroke="black" stroke-width="2.5" points="97.22,-35.94 97.58,-34.95 96.68,-35.49 97.22,-35.94"/>
</g>
<!-- 1&#45;&gt;3 -->
<g id="edge15" class="edge">
<title>1&#45;&gt;3</title>
<path fill="none" stroke="black" stroke-width="2.5" d="M53.13,-103.35C82.62,-105.48 130.34,-105.5 160.25,-103.43"/>
<polygon fill="black" stroke="black" stroke-width="2.5" points="160.33,-103.77 161.31,-103.35 160.28,-103.08 160.33,-103.77"/>
</g>
<!-- 1&#45;&gt;2 -->
<g id="edge16" class="edge">
<title>1&#45;&gt;2</title>
<path fill="none" stroke="black" stroke-width="2.5" d="M36.59,-115.11C48.89,-130.15 70.14,-151.63 86.21,-165.39"/>
<polygon fill="black" stroke="black" stroke-width="2.5" points="85.98,-165.66 86.97,-166.04 86.43,-165.13 85.98,-165.66"/>
</g>
<!-- 1&#45;&gt;1 -->
<g id="edge13" class="edge">
<title>1&#45;&gt;1</title>
<path fill="none" stroke="black" stroke-width="2.5" d="M52.44,-104.9C63.03,-105.37 72,-103.14 72,-98.21 72,-93.52 63.85,-91.28 53.92,-91.48"/>
<polygon fill="black" stroke="black" stroke-width="2.5" points="53.43,-91.14 52.44,-91.52 53.45,-91.84 53.43,-91.14"/>
</g>
</g>
</svg>
