<?xml version="1.0" encoding="UTF-8" standalone="no"?>
<!DOCTYPE svg PUBLIC "-//W3C//DTD SVG 1.1//EN"
 "http://www.w3.org/Graphics/SVG/1.1/DTD/svg11.dtd">
<!-- Generated by graphviz version 2.42.3 (0)
 -->
<!-- Title: %3 Pages: 1 -->
<svg width="631pt" height="116pt"
 viewBox="0.00 0.00 630.98 116.00" xmlns="http://www.w3.org/2000/svg" xmlns:xlink="http://www.w3.org/1999/xlink">
<g id="graph0" class="graph" transform="scale(1 1) rotate(0) translate(4 112)">
<title>%3</title>
<polygon fill="white" stroke="transparent" points="-4,4 -4,-112 626.98,-112 626.98,4 -4,4"/>
<!-- BASSDRUM -->
<g id="node1" class="node">
<title>BASSDRUM</title>
<ellipse fill="none" stroke="black" cx="86.65" cy="-90" rx="59.59" ry="18"/>
<text text-anchor="middle" x="86.65" y="-86.3" font-family="Times,serif" font-size="14.00">BASSDRUM</text>
</g>
<!-- BASSDRUM&#45;&gt;BASSDRUM -->
<g id="edge1" class="edge">
<title>BASSDRUM&#45;&gt;BASSDRUM</title>
<path fill="none" stroke="black" stroke-width="8" d="M127.47,-103.17C147.11,-104.8 164.44,-100.41 164.44,-90 164.44,-80.49 149.96,-76 132.47,-76.54"/>
<polygon fill="black" stroke="black" stroke-width="8" points="132.26,-73.05 127.47,-76.83 132.66,-80.04 132.26,-73.05"/>
</g>
<!-- SNARE -->
<g id="node2" class="node">
<title>SNARE</title>
<ellipse fill="none" stroke="black" cx="39.65" cy="-18" rx="39.79" ry="18"/>
<text text-anchor="middle" x="39.65" y="-14.3" font-family="Times,serif" font-size="14.00">SNARE</text>
</g>
<!-- BASSDRUM&#45;&gt;SNARE -->
<g id="edge2" class="edge">
<title>BASSDRUM&#45;&gt;SNARE</title>
<path fill="none" stroke="black" d="M69.67,-72.41C61.35,-61.76 52.02,-47.92 45.75,-37"/>
<polygon fill="black" stroke="black" points="45.95,-36.65 45.15,-35.96 45.34,-37 45.95,-36.65"/>
</g>
<!-- HIHAT -->
<g id="node3" class="node">
<title>HIHAT</title>
<ellipse fill="none" stroke="black" cx="134.65" cy="-18" rx="37.09" ry="18"/>
<text text-anchor="middle" x="134.65" y="-14.3" font-family="Times,serif" font-size="14.00">HIHAT</text>
</g>
<!-- BASSDRUM&#45;&gt;HIHAT -->
<g id="edge3" class="edge">
<title>BASSDRUM&#45;&gt;HIHAT</title>
<path fill="none" stroke="black" d="M92.39,-72.05C98.89,-60.83 108.95,-46.2 117.78,-35.15"/>
<polygon fill="black" stroke="black" points="118.06,-35.36 118.42,-34.36 117.52,-34.92 118.06,-35.36"/>
</g>
<!-- SNARE&#45;&gt;BASSDRUM -->
<g id="edge6" class="edge">
<title>SNARE&#45;&gt;BASSDRUM</title>
<path fill="none" stroke="black" stroke-width="10" d="M56.03,-34.83C62.65,-43.23 69.98,-53.77 75.93,-63.31"/>
<polygon fill="black" stroke="black" stroke-width="10" points="68.51,-67.95 81.15,-72.05 83.54,-58.98 68.51,-67.95"/>
</g>
<!-- HIHAT&#45;&gt;BASSDRUM -->
<g id="edge7" class="edge">
<title>HIHAT&#45;&gt;BASSDRUM</title>
<path fill="none" stroke="black" stroke-width="10" d="M128.9,-35.96C123.99,-44.43 117.04,-54.85 110.14,-64.21"/>
<polygon fill="black" stroke="black" stroke-width="10" points="102.99,-59.15 103.86,-72.41 116.89,-69.78 102.99,-59.15"/>
</g>
<!-- BASSDRUM, BASSDRUM, BASSDRUM, BASSDRUM -->
<g id="node4" class="node">
<title>BASSDRUM, BASSDRUM, BASSDRUM, BASSDRUM</title>
<ellipse fill="none" stroke="black" cx="402.65" cy="-90" rx="220.16" ry="18"/>
<text text-anchor="middle" x="402.65" y="-86.3" font-family="Times,serif" font-size="14.00">BASSDRUM, BASSDRUM, BASSDRUM, BASSDRUM</text>
</g>
<!-- BASSDRUM, BASSDRUM, BASSDRUM, BASSDRUM&#45;&gt;SNARE -->
<g id="edge5" class="edge">
<title>BASSDRUM, BASSDRUM, BASSDRUM, BASSDRUM&#45;&gt;SNARE</title>
<path fill="none" stroke="black" stroke-width="3" d="M289.43,-74.55C229.28,-65.7 154.39,-52.83 88.65,-36 82.68,-34.47 76.4,-32.55 70.4,-30.54"/>
<polygon fill="black" stroke="black" stroke-width="3" points="70.26,-30.13 69.2,-30.14 70.04,-30.79 70.26,-30.13"/>
</g>
<!-- BASSDRUM, BASSDRUM, BASSDRUM, BASSDRUM&#45;&gt;HIHAT -->
<g id="edge4" class="edge">
<title>BASSDRUM, BASSDRUM, BASSDRUM, BASSDRUM&#45;&gt;HIHAT</title>
<path fill="none" stroke="black" stroke-width="7" d="M340.15,-72.68C287.88,-59.02 215.07,-40.01 171.61,-28.66"/>
<polygon fill="black" stroke="black" stroke-width="7" points="172.34,-25.68 166.72,-27.38 170.79,-31.61 172.34,-25.68"/>
</g>
</g>
</svg>
