<?xml version="1.0" encoding="UTF-8" standalone="no"?>
<!DOCTYPE svg PUBLIC "-//W3C//DTD SVG 1.1//EN"
 "http://www.w3.org/Graphics/SVG/1.1/DTD/svg11.dtd">
<!-- Generated by graphviz version 2.42.3 (0)
 -->
<!-- Title: %3 Pages: 1 -->
<svg width="180pt" height="116pt"
 viewBox="0.00 0.00 179.69 116.00" xmlns="http://www.w3.org/2000/svg" xmlns:xlink="http://www.w3.org/1999/xlink">
<g id="graph0" class="graph" transform="scale(1 1) rotate(0) translate(4 112)">
<title>%3</title>
<polygon fill="white" stroke="transparent" points="-4,4 -4,-112 175.69,-112 175.69,4 -4,4"/>
<!-- BASSDRUM -->
<g id="node1" class="node">
<title>BASSDRUM</title>
<ellipse fill="none" stroke="black" cx="86.65" cy="-90" rx="59.59" ry="18"/>
<text text-anchor="middle" x="86.65" y="-86.3" font-family="Times,serif" font-size="14.00">BASSDRUM</text>
</g>
<!-- SNARE -->
<g id="node2" class="node">
<title>SNARE</title>
<ellipse fill="none" stroke="black" cx="39.65" cy="-18" rx="39.79" ry="18"/>
<text text-anchor="middle" x="39.65" y="-14.3" font-family="Times,serif" font-size="14.00">SNARE</text>
</g>
<!-- BASSDRUM&#45;&gt;SNARE -->
<g id="edge1" class="edge">
<title>BASSDRUM&#45;&gt;SNARE</title>
<path fill="none" stroke="black" stroke-width="5" d="M69.67,-72.41C62.22,-62.87 53.96,-50.79 47.82,-40.53"/>
<polygon fill="black" stroke="black" stroke-width="5" points="49.56,-39.17 45.15,-35.96 45.78,-41.38 49.56,-39.17"/>
</g>
<!-- HIHAT -->
<g id="node3" class="node">
<title>HIHAT</title>
<ellipse fill="none" stroke="black" cx="134.65" cy="-18" rx="37.09" ry="18"/>
<text text-anchor="middle" x="134.65" y="-14.3" font-family="Times,serif" font-size="14.00">HIHAT</text>
</g>
<!-- BASSDRUM&#45;&gt;HIHAT -->
<g id="edge2" class="edge">
<title>BASSDRUM&#45;&gt;HIHAT</title>
<path fill="none" stroke="black" stroke-width="5" d="M92.39,-72.05C98.27,-61.91 107.06,-48.98 115.21,-38.42"/>
<polygon fill="black" stroke="black" stroke-width="5" points="117.04,-39.64 118.42,-34.36 113.6,-36.93 117.04,-39.64"/>
</g>
<!-- SNARE&#45;&gt;BASSDRUM -->
<g id="edge3" class="edge">
<title>SNARE&#45;&gt;BASSDRUM</title>
<path fill="none" stroke="black" stroke-width="10" d="M56.03,-34.83C62.65,-43.23 69.98,-53.77 75.93,-63.31"/>
<polygon fill="black" stroke="black" stroke-width="10" points="68.51,-67.95 81.15,-72.05 83.54,-58.98 68.51,-67.95"/>
</g>
<!-- HIHAT&#45;&gt;BASSDRUM -->
<g id="edge4" class="edge">
<title>HIHAT&#45;&gt;BASSDRUM</title>
<path fill="none" stroke="black" stroke-width="10" d="M128.9,-35.96C123.99,-44.43 117.04,-54.85 110.14,-64.21"/>
<polygon fill="black" stroke="black" stroke-width="10" points="102.99,-59.15 103.86,-72.41 116.89,-69.78 102.99,-59.15"/>
</g>
</g>
</svg>
