<?xml version="1.0" encoding="UTF-8" standalone="no"?>
<!DOCTYPE svg PUBLIC "-//W3C//DTD SVG 1.1//EN"
 "http://www.w3.org/Graphics/SVG/1.1/DTD/svg11.dtd">
<!-- Generated by graphviz version 2.42.3 (0)
 -->
<!-- Title: %3 Pages: 1 -->
<svg width="684pt" height="332pt"
 viewBox="0.00 0.00 684.11 332.00" xmlns="http://www.w3.org/2000/svg" xmlns:xlink="http://www.w3.org/1999/xlink">
<g id="graph0" class="graph" transform="scale(1 1) rotate(0) translate(4 328)">
<title>%3</title>
<polygon fill="white" stroke="transparent" points="-4,4 -4,-328 680.11,-328 680.11,4 -4,4"/>
<!-- BASSDRUM -->
<g id="node1" class="node">
<title>BASSDRUM</title>
<ellipse fill="none" stroke="black" cx="59.79" cy="-306" rx="59.59" ry="18"/>
<text text-anchor="middle" x="59.79" y="-302.3" font-family="Times,serif" font-size="14.00">BASSDRUM</text>
</g>
<!-- BASSDRUM, BASSDRUM -->
<g id="node2" class="node">
<title>BASSDRUM, BASSDRUM</title>
<ellipse fill="none" stroke="black" cx="210.79" cy="-234" rx="114.28" ry="18"/>
<text text-anchor="middle" x="210.79" y="-230.3" font-family="Times,serif" font-size="14.00">BASSDRUM, BASSDRUM</text>
</g>
<!-- BASSDRUM&#45;&gt;BASSDRUM, BASSDRUM -->
<g id="edge1" class="edge">
<title>BASSDRUM&#45;&gt;BASSDRUM, BASSDRUM</title>
<path fill="none" stroke="black" stroke-width="0.8" d="M91.08,-290.5C113.47,-280.12 143.87,-266.02 168.43,-254.64"/>
<polygon fill="black" stroke="black" stroke-width="0.8" points="169.77,-257.1 175.85,-251.2 167.42,-252.02 169.77,-257.1"/>
</g>
<!-- SNARE -->
<g id="node3" class="node">
<title>SNARE</title>
<ellipse fill="none" stroke="black" cx="59.79" cy="-18" rx="38.99" ry="18"/>
<text text-anchor="middle" x="59.79" y="-14.3" font-family="Times,serif" font-size="14.00">SNARE</text>
</g>
<!-- BASSDRUM&#45;&gt;SNARE -->
<g id="edge2" class="edge">
<title>BASSDRUM&#45;&gt;SNARE</title>
<path fill="none" stroke="black" stroke-width="0.1" d="M56.38,-287.97C51.96,-237.5 51.93,-89.04 56.29,-37.15"/>
<polygon fill="black" stroke="black" stroke-width="0.1" points="56.65,-36.97 56.39,-35.94 55.96,-36.91 56.65,-36.97"/>
</g>
<!-- HIHAT -->
<g id="node4" class="node">
<title>HIHAT</title>
<ellipse fill="none" stroke="black" cx="154.79" cy="-18" rx="37.89" ry="18"/>
<text text-anchor="middle" x="154.79" y="-14.3" font-family="Times,serif" font-size="14.00">HIHAT</text>
</g>
<!-- BASSDRUM&#45;&gt;HIHAT -->
<g id="edge3" class="edge">
<title>BASSDRUM&#45;&gt;HIHAT</title>
<path fill="none" stroke="black" stroke-width="0.1" d="M111.61,-296.9C165.55,-288.42 251.91,-273.34 324.79,-252 476.81,-207.49 567.34,-242.62 650.79,-108 659.23,-94.4 661.5,-83.89 650.79,-72 620.09,-37.91 305.36,-24.21 193.69,-20.29"/>
<polygon fill="black" stroke="black" stroke-width="0.1" points="193.4,-19.93 192.39,-20.24 193.38,-20.63 193.4,-19.93"/>
</g>
<!-- BASSDRUM, BASSDRUM&#45;&gt;SNARE -->
<g id="edge7" class="edge">
<title>BASSDRUM, BASSDRUM&#45;&gt;SNARE</title>
<path fill="none" stroke="black" stroke-width="0.1" d="M174.37,-216.9C157.72,-208.03 138.84,-195.61 125.79,-180 92.67,-140.35 102.64,-119.7 82.79,-72 77.94,-60.34 72.3,-47.32 67.82,-37.11"/>
<polygon fill="black" stroke="black" stroke-width="0.1" points="68.11,-36.9 67.39,-36.13 67.47,-37.19 68.11,-36.9"/>
</g>
<!-- BASSDRUM, BASSDRUM&#45;&gt;HIHAT -->
<g id="edge8" class="edge">
<title>BASSDRUM, BASSDRUM&#45;&gt;HIHAT</title>
<path fill="none" stroke="black" stroke-width="0.1" d="M292.74,-221.44C359.32,-211.2 447.32,-195.52 479.79,-180 502.28,-169.25 500.85,-155.82 522.79,-144 571.81,-117.59 609.56,-152.67 642.79,-108 652.35,-95.16 653.48,-83.91 642.79,-72 612.93,-38.71 303.89,-24.38 193.62,-20.3"/>
<polygon fill="black" stroke="black" stroke-width="0.1" points="193.35,-19.94 192.33,-20.25 193.32,-20.64 193.35,-19.94"/>
</g>
<!-- BASSDRUM, BASSDRUM, BASSDRUM -->
<g id="node6" class="node">
<title>BASSDRUM, BASSDRUM, BASSDRUM</title>
<ellipse fill="none" stroke="black" cx="302.79" cy="-162" rx="168.17" ry="18"/>
<text text-anchor="middle" x="302.79" y="-158.3" font-family="Times,serif" font-size="14.00">BASSDRUM, BASSDRUM, BASSDRUM</text>
</g>
<!-- BASSDRUM, BASSDRUM&#45;&gt;BASSDRUM, BASSDRUM, BASSDRUM -->
<g id="edge6" class="edge">
<title>BASSDRUM, BASSDRUM&#45;&gt;BASSDRUM, BASSDRUM, BASSDRUM</title>
<path fill="none" stroke="black" stroke-width="0.8" d="M233.07,-216.05C245.29,-206.75 260.6,-195.11 273.75,-185.1"/>
<polygon fill="black" stroke="black" stroke-width="0.8" points="275.74,-187.1 280.41,-180.03 272.35,-182.65 275.74,-187.1"/>
</g>
<!-- SNARE&#45;&gt;BASSDRUM -->
<g id="edge12" class="edge">
<title>SNARE&#45;&gt;BASSDRUM</title>
<path fill="none" stroke="black" d="M63.2,-35.94C67.39,-83.62 67.64,-219.25 63.97,-277.68"/>
<polygon fill="black" stroke="black" points="60.45,-277.74 63.21,-287.97 67.43,-278.25 60.45,-277.74"/>
</g>
<!-- HIHAT&#45;&gt;BASSDRUM -->
<g id="edge13" class="edge">
<title>HIHAT&#45;&gt;BASSDRUM</title>
<path fill="none" stroke="black" d="M192.31,-19.98C305.55,-23.46 637.23,-36.95 668.79,-72 679.5,-83.89 677.23,-94.4 668.79,-108 585.34,-242.62 494.81,-207.49 342.79,-252 269.43,-273.48 182.42,-288.62 124.34,-297.07"/>
<polygon fill="black" stroke="black" points="123.61,-293.64 114.2,-298.52 124.6,-300.57 123.61,-293.64"/>
</g>
<!-- BASSDRUM, BASSDRUM, BASSDRUM, BASSDRUM -->
<g id="node5" class="node">
<title>BASSDRUM, BASSDRUM, BASSDRUM, BASSDRUM</title>
<ellipse fill="none" stroke="black" cx="394.79" cy="-90" rx="222.06" ry="18"/>
<text text-anchor="middle" x="394.79" y="-86.3" font-family="Times,serif" font-size="14.00">BASSDRUM, BASSDRUM, BASSDRUM, BASSDRUM</text>
</g>
<!-- BASSDRUM, BASSDRUM, BASSDRUM, BASSDRUM&#45;&gt;SNARE -->
<g id="edge5" class="edge">
<title>BASSDRUM, BASSDRUM, BASSDRUM, BASSDRUM&#45;&gt;SNARE</title>
<path fill="none" stroke="black" stroke-width="0.3" d="M291.64,-73.99C236.6,-64.98 168,-52.11 107.79,-36 102.53,-34.59 97.03,-32.88 91.7,-31.09"/>
<polygon fill="black" stroke="black" stroke-width="0.3" points="91.93,-30.06 88.75,-30.08 91.26,-32.05 91.93,-30.06"/>
</g>
<!-- BASSDRUM, BASSDRUM, BASSDRUM, BASSDRUM&#45;&gt;HIHAT -->
<g id="edge4" class="edge">
<title>BASSDRUM, BASSDRUM, BASSDRUM, BASSDRUM&#45;&gt;HIHAT</title>
<path fill="none" stroke="black" stroke-width="0.7" d="M338.22,-72.5C293.47,-59.45 232.21,-41.58 193.06,-30.16"/>
<polygon fill="black" stroke="black" stroke-width="0.7" points="193.43,-27.72 186.02,-28.11 192.05,-32.42 193.43,-27.72"/>
</g>
<!-- BASSDRUM, BASSDRUM, BASSDRUM&#45;&gt;SNARE -->
<g id="edge10" class="edge">
<title>BASSDRUM, BASSDRUM, BASSDRUM&#45;&gt;SNARE</title>
<path fill="none" stroke="black" stroke-width="0.1" d="M248.01,-144.97C221.57,-136.04 190,-123.57 163.79,-108 159.07,-105.2 106.97,-60.06 78.35,-35.17"/>
<polygon fill="black" stroke="black" stroke-width="0.1" points="78.33,-34.69 77.35,-34.29 77.87,-35.21 78.33,-34.69"/>
</g>
<!-- BASSDRUM, BASSDRUM, BASSDRUM&#45;&gt;HIHAT -->
<g id="edge11" class="edge">
<title>BASSDRUM, BASSDRUM, BASSDRUM&#45;&gt;HIHAT</title>
<path fill="none" stroke="black" stroke-width="0.1" d="M420.37,-149.12C507.07,-139.13 612.23,-123.97 625.79,-108 636.15,-95.8 636.46,-83.93 625.79,-72 597.12,-39.92 300.83,-24.88 193.42,-20.45"/>
<polygon fill="black" stroke="black" stroke-width="0.1" points="193.18,-20.09 192.16,-20.4 193.15,-20.79 193.18,-20.09"/>
</g>
<!-- BASSDRUM, BASSDRUM, BASSDRUM&#45;&gt;BASSDRUM, BASSDRUM, BASSDRUM, BASSDRUM -->
<g id="edge9" class="edge">
<title>BASSDRUM, BASSDRUM, BASSDRUM&#45;&gt;BASSDRUM, BASSDRUM, BASSDRUM, BASSDRUM</title>
<path fill="none" stroke="black" stroke-width="0.8" d="M325.07,-144.05C337.29,-134.75 352.6,-123.11 365.75,-113.1"/>
<polygon fill="black" stroke="black" stroke-width="0.8" points="367.74,-115.1 372.41,-108.03 364.35,-110.65 367.74,-115.1"/>
</g>
</g>
</svg>
